<svg xmlns="http://www.w3.org/2000/svg" viewBox="0 0 861.2 578.92"><title>onboarding_icon-01</title><path d="M204.74,17.52C101.05,17.52,17,101.57,17,205.26S101.05,393,204.74,393s187.74-84.05,187.74-187.74S308.43,17.52,204.74,17.52Zm67.89,249.12-48.3,48.94a26.92,26.92,0,0,1-38.06.32l-.32-.32L137.52,266.7a27.71,27.71,0,0,1,0-38.85h0a16.75,16.75,0,0,1,23.68-.2l.2.2,24.46,24.73a26.92,26.92,0,0,0,38.06.32l.32-.32,24.43-24.76a16.75,16.75,0,0,1,23.68-.2l.2.2h0a27.71,27.71,0,0,1,.06,38.8Zm50.8-78.25h0a16.14,16.14,0,0,1-22.82.42l-.19-.19L277.07,165a26,26,0,0,0-36.7.07l-.31.32-23.78,24.09a16.39,16.39,0,0,1-13.48,4.83,15.78,15.78,0,0,1-10-4.69l-23.34-23.56a26,26,0,0,0-36.7.07l-.31.32-23.78,24.09a16.14,16.14,0,0,1-22.82.42l-.19-.19h0a26.71,26.71,0,0,1,.34-37.49l47-47.58a26,26,0,0,1,36.69-.75l.34.33,35,35.41,35.59-36.05a26,26,0,0,1,36.69-.7l.32.31,46.13,46.66a26.71,26.71,0,0,1-.34,37.46Z" style="fill:#0e97c0;stroke:#000;stroke-miterlimit:10;stroke-width:13px"/><rect x="516.01" y="110.09" width="46.5" height="10.5" style="fill:#ffce00"/><path d="M699.66,135.59V280.81h-.86a7.5,7.5,0,0,0-7.5,7.5h0v2.83h-48a19.63,19.63,0,0,1-2.86-2.82c-1.87-2.34-3.29-5.82-4.8-9.5-2.41-5.88-5.13-12.54-10.84-17.1S612,256,605.8,255c-3.94-.66-7.66-1.28-10.39-2.59s-5.37-3.76-8.28-6.39c-4.75-4.29-10.13-9.16-17.36-10.8-7-1.59-13.81.41-19.84,2.17-3.89,1.14-7.57,2.22-10.7,2.22s-6.81-1.08-10.71-2.22c-6-1.76-12.86-3.76-19.83-2.17-7.23,1.64-12.62,6.51-17.36,10.8-2.91,2.63-5.66,5.12-8.28,6.39s-6.46,1.93-10.4,2.59c-6.25,1-13.33,2.22-19,6.75s-8.43,11.22-10.84,17.1c-1.5,3.68-2.93,7.16-4.8,9.51a19.63,19.63,0,0,1-2.86,2.81h-48v-2.83a7.5,7.5,0,0,0-7.5-7.5h-.86V135.59H699.66ZM680.71,261A7.51,7.51,0,0,0,675,247.11L649.65,257.6a7.5,7.5,0,0,0,2.87,14.4,7.65,7.65,0,0,0,2.87-.57Zm-34.63-45.75a7.5,7.5,0,1,0-10.43-10.78l-.18.18-12.73,12.74A7.5,7.5,0,1,0,633.35,228Zm-42.49-39.48A7.51,7.51,0,0,0,589.73,170h0l-10.49,25.32a7.5,7.5,0,0,0,4.06,9.8h0a7.64,7.64,0,0,0,2.86.57,7.51,7.51,0,0,0,6.94-4.63Zm-56.83,9.35v-18a7.5,7.5,0,1,0-15,0v18a7.5,7.5,0,0,0,15,0Zm-51.54,20a7.52,7.52,0,0,0,4.06-9.8L488.79,170a7.5,7.5,0,1,0-13.86,5.74h0l10.49,25.32a7.49,7.49,0,0,0,6.93,4.63,7.65,7.65,0,0,0,2.87-.57ZM455.77,228a7.49,7.49,0,0,0,0-10.59h0L443,204.62A7.5,7.5,0,0,0,432.21,215l.18.18L445.16,228a7.5,7.5,0,0,0,10.61,0Zm-22.84,39.4a7.51,7.51,0,0,0-4.06-9.8l-25.32-10.49A7.51,7.51,0,1,0,397.81,261h0l25.32,10.49A7.64,7.64,0,0,0,426,272,7.51,7.51,0,0,0,432.93,267.4Z" style="fill:#8b572a"/><path d="M691.3,339.79V450a66,66,0,0,0-26.38,45.57H413.6A66,66,0,0,0,387.22,450V339.79H495.78V382.9a7.5,7.5,0,0,0,7.5,7.5h72a7.5,7.5,0,0,0,7.5-7.5V339.79Z" style="fill:#8b572a"/><path d="M539.26,333.58a7.41,7.41,0,1,1-7.42,7.41A7.41,7.41,0,0,1,539.26,333.58Z" style="fill:#ffce00"/><path d="M567.73,306.58V375.4H510.78V306.58h56.95ZM561.67,341a22.42,22.42,0,1,0-22.43,22.41h0A22.44,22.44,0,0,0,561.67,341Z" style="fill:#dfdfe3"/><path d="M372.22,295.81V441.68a65.49,65.49,0,0,0-16.68-4.17V295.81Z" style="fill:#ffce00"/><polygon points="495.77 306.14 495.77 324.79 387.21 324.79 387.21 306.14 389.25 306.14 495.77 306.14" style="fill:#ffce00"/><rect x="582.73" y="306.14" width="108.57" height="18.65" style="fill:#ffce00"/><path d="M723,295.81v141.7a65.28,65.28,0,0,0-16.68,4.17V295.81Z" style="fill:#ffce00"/><path d="M733,452.63v42.94H690A51.11,51.11,0,0,1,733,452.63Z" style="fill:#ffce00"/><path d="M398.48,495.57H355.54V452.63A51.12,51.12,0,0,1,398.48,495.57Z" style="fill:#ffce00"/><path d="M624.7,291.14H453.81c1.08-2.19,2-4.43,2.91-6.64,1.88-4.6,3.65-8.94,6.31-11.06s7.23-2.86,12.11-3.67,9.79-1.63,14.46-3.88,8.25-5.55,11.82-8.77,7.22-6.53,10.62-7.31c3.17-.72,7.61.58,12.3,1.95,4.52,1.32,9.64,2.82,14.92,2.82s10.4-1.5,14.92-2.82c4.69-1.37,9.12-2.67,12.3-1.94,3.4.77,6.9,3.94,10.61,7.3s7.26,6.56,11.83,8.77,9.64,3.07,14.45,3.88,9.49,1.57,12.12,3.67,4.43,6.46,6.3,11C622.7,286.7,623.62,289,624.7,291.14Z" style="fill:#ffa21a"/><path d="M738,288.31V503.07a7.5,7.5,0,0,1-7.5,7.5H348a7.5,7.5,0,0,1-7.5-7.5V288.31a7.5,7.5,0,0,1,7.5-7.5h15.82V128.09a7.5,7.5,0,0,1,7.5-7.5H501v-18a7.5,7.5,0,0,1,7.5-7.5H570a7.5,7.5,0,0,1,7.5,7.5h0v18H707.16a7.5,7.5,0,0,1,7.5,7.5V280.81h15.82a7.5,7.5,0,0,1,7.52,7.48ZM723,495.57V452.63a51.11,51.11,0,0,0-43,42.94Zm0-58.06V295.81H706.3V441.68A65.28,65.28,0,0,1,723,437.51Zm-23.32-156.7V135.59H378.86V280.81h.86a7.5,7.5,0,0,1,7.5,7.5h0v2.83h48a19.63,19.63,0,0,0,2.86-2.81c1.87-2.35,3.3-5.83,4.8-9.51,2.41-5.88,5.13-12.54,10.84-17.1s12.76-5.71,19-6.75c3.94-.66,7.67-1.28,10.4-2.59s5.37-3.76,8.28-6.39c4.74-4.29,10.13-9.16,17.36-10.8,7-1.59,13.8.41,19.83,2.17,3.9,1.14,7.58,2.22,10.71,2.22s6.81-1.08,10.7-2.22c6-1.76,12.87-3.76,19.84-2.17,7.23,1.64,12.61,6.51,17.36,10.8,2.91,2.63,5.65,5.12,8.28,6.39s6.45,1.93,10.39,2.59c6.25,1,13.34,2.22,19,6.75s8.43,11.22,10.84,17.1c1.51,3.68,2.93,7.16,4.8,9.5a19.64,19.64,0,0,0,2.86,2.82h48v-2.83a7.5,7.5,0,0,1,7.5-7.5h.81ZM691.3,450V339.79H582.73V382.9a7.5,7.5,0,0,1-7.5,7.5H503.28a7.5,7.5,0,0,1-7.5-7.5V339.79H387.22V450a66,66,0,0,1,26.38,45.57H664.92A66,66,0,0,1,691.3,450Zm0-125.21V306.14H582.73v18.65ZM453.81,291.14H624.7c-1.08-2.19-2-4.44-2.91-6.65-1.87-4.59-3.65-8.93-6.3-11s-7.24-2.86-12.12-3.67-9.79-1.63-14.45-3.88-8.26-5.55-11.83-8.77-7.21-6.53-10.61-7.3c-3.18-.73-7.61.57-12.3,1.94-4.52,1.32-9.64,2.82-14.92,2.82s-10.4-1.5-14.92-2.82c-4.69-1.37-9.13-2.67-12.3-1.95-3.4.78-6.91,3.95-10.62,7.31s-7.26,6.56-11.82,8.77S480,269,475.14,269.77s-9.48,1.57-12.11,3.67-4.43,6.46-6.31,11.06C455.81,286.71,454.89,289,453.81,291.14ZM567.73,375.4V306.58H510.78V375.4Zm-5.22-254.81v-10.5H516v10.5Zm-66.73,204.2V306.14H387.22v18.65ZM379.72,495.57h18.76a51.12,51.12,0,0,0-42.94-42.94v42.94Zm-7.5-53.89V295.81H355.54v141.7A65.49,65.49,0,0,1,372.22,441.68Z"/><path d="M652.52,278a13.5,13.5,0,0,1-5.16-26l25.31-10.49a13.53,13.53,0,0,1,10.33,25h0L657.68,277A13.68,13.68,0,0,1,652.52,278Z" style="fill:#ffa21a"/><path d="M677.84,246.54A7.5,7.5,0,0,1,680.71,261l-25.32,10.49a7.65,7.65,0,0,1-2.87.57,7.5,7.5,0,0,1-2.87-14.43L675,247.11a7.47,7.47,0,0,1,2.87-.58m0-12h0A19.39,19.39,0,0,0,670.4,236l-25.31,10.49a19.48,19.48,0,0,0,14.8,36h0l25.32-10.49a19.5,19.5,0,0,0-7.46-37.52Z"/><path d="M628,236.16a13.51,13.51,0,0,1-9.55-23l12.73-12.74a13.5,13.5,0,1,1,19.37,18.81l-.27.27-12.69,12.7A13.41,13.41,0,0,1,628,236.16Z" style="fill:#ffa21a"/><path d="M640.78,202.42a7.5,7.5,0,0,1,5.3,12.81L633.35,228a7.5,7.5,0,0,1-10.61-10.6l12.73-12.74a7.47,7.47,0,0,1,5.31-2.21m0-12h0a19.37,19.37,0,0,0-13.78,5.7l-12.72,12.73a19.5,19.5,0,0,0,27.58,27.57l12.73-12.74a19.5,19.5,0,0,0-13.79-33.29Z"/><path d="M586.16,211.69A13.51,13.51,0,0,1,573.7,193l10.49-25.31a13.52,13.52,0,1,1,25,10.32L598.7,203.35A13.48,13.48,0,0,1,586.16,211.69Z" style="fill:#ffa21a"/><path d="M596.65,165.37a7.51,7.51,0,0,1,6.93,10.38L593.1,201.06a7.51,7.51,0,0,1-6.94,4.63,7.64,7.64,0,0,1-2.86-.57,7.5,7.5,0,0,1-4.06-9.8h0L589.73,170a7.49,7.49,0,0,1,6.93-4.64m0-12h0a19.43,19.43,0,0,0-18,12.06l-10.48,25.3a19.5,19.5,0,0,0,10.55,25.48h.1a19.5,19.5,0,0,0,25.38-10.58l10.49-25.33a19.51,19.51,0,0,0-18-27Z"/><path d="M539.26,318.58A22.41,22.41,0,1,1,516.84,341,22.41,22.41,0,0,1,539.26,318.58ZM546.67,341a7.42,7.42,0,1,0-7.43,7.41h0A7.42,7.42,0,0,0,546.67,341Z"/><path d="M539.26,198.59a13.52,13.52,0,0,1-13.5-13.5v-18a13.5,13.5,0,1,1,27,0h0v18A13.52,13.52,0,0,1,539.26,198.59Z" style="fill:#ffa21a"/><path d="M539.26,159.59a7.5,7.5,0,0,1,7.5,7.5h0v18a7.5,7.5,0,0,1-15,0v-18a7.49,7.49,0,0,1,7.48-7.5h0m0-12a19.52,19.52,0,0,0-19.5,19.5v18a19.5,19.5,0,0,0,39,0v-18A19.52,19.52,0,0,0,539.26,147.59Z"/><path d="M492.35,211.69a13.45,13.45,0,0,1-12.48-8.35L469.38,178a13.5,13.5,0,1,1,24.83-10.6l.11.26L504.82,193a13.53,13.53,0,0,1-7.3,17.64A13.68,13.68,0,0,1,492.35,211.69Z" style="fill:#ffa21a"/><path d="M481.85,165.37a7.51,7.51,0,0,1,6.93,4.64l10.49,25.32a7.52,7.52,0,0,1-4.06,9.8,7.65,7.65,0,0,1-2.87.57,7.49,7.49,0,0,1-6.93-4.63l-10.49-25.32a7.51,7.51,0,0,1,6.93-10.38m0-12h0a19.5,19.5,0,0,0-18,27l10.49,25.31a19.5,19.5,0,0,0,25.38,10.59h.12a19.54,19.54,0,0,0,10.54-25.47l-10.49-25.33a19.46,19.46,0,0,0-18-12Z"/><path d="M450.47,236.16a13.46,13.46,0,0,1-9.54-3.94l-12.75-12.76A13.5,13.5,0,0,1,447,200.11l.27.27L460,213.12a13.5,13.5,0,0,1-9.54,23Z" style="fill:#ffa21a"/><path d="M437.73,202.42a7.49,7.49,0,0,1,5.31,2.2l12.73,12.74A7.51,7.51,0,0,1,445.16,228l-12.73-12.74a7.5,7.5,0,0,1,5.3-12.8m0-12a19.5,19.5,0,0,0-13.79,33.29l12.73,12.74a19.5,19.5,0,1,0,27.93-27.22l-.35-.35-12.73-12.74a19.39,19.39,0,0,0-13.8-5.72Z"/><path d="M426,278a13.59,13.59,0,0,1-5.11-1l-25.37-10.51a13.5,13.5,0,1,1,10.08-25l.26.11L431.18,252A13.5,13.5,0,0,1,426,278Z" style="fill:#ffa21a"/><path d="M400.67,246.54a7.48,7.48,0,0,1,2.87.58l25.32,10.49A7.5,7.5,0,0,1,426,272a7.64,7.64,0,0,1-2.86-.57L397.81,261a7.5,7.5,0,0,1,2.87-14.44m0-12h0a19.5,19.5,0,0,0-7.47,37.52l25.33,10.49h0a19.5,19.5,0,0,0,14.82-36.07L408.14,236a19.38,19.38,0,0,0-7.47-1.49Z"/><path d="M407.26,403h64a10.67,10.67,0,0,0,0-21.33h-64a10.67,10.67,0,1,0-.65,21.33Z" style="fill:#4d3325;opacity:0.5;isolation:isolate"/><path d="M467.85,452.35h64a10.67,10.67,0,0,0,0-21.33h-64a10.67,10.67,0,1,0-.65,21.33h.65Z" style="fill:#4d3325;opacity:0.5;isolation:isolate"/><path d="M602.41,422.11h64a10.67,10.67,0,0,0,.65-21.33H602.41a10.67,10.67,0,0,0-.65,21.33Z" style="fill:#4d3325;opacity:0.5;isolation:isolate"/><path d="M559.74,498.44h64a10.67,10.67,0,0,0,.65-21.33H559.74a10.67,10.67,0,0,0-.65,21.33Z" style="fill:#4d3325;opacity:0.5;isolation:isolate"/><path d="M845.09,368.53l-81.76-28.86a4.81,4.81,0,0,0-3.2,0l-81.76,28.86a4.82,4.82,0,0,0-3.21,4.54v57.71c0,74.68,11.07,102,84.4,139a4.79,4.79,0,0,0,4.33,0c73.33-37,84.4-64.27,84.4-139V373.07A4.82,4.82,0,0,0,845.09,368.53Z"/><path d="M761.73,352.54l-72.22,23.93-2.08,54.31c0,8.7.14,16.66.49,24h73.81Z" style="fill:#81cc3b"/><path d="M838.18,454.82c.36-7.38.5-15.34.5-24l-2.15-54.31-74.8-25V454.82Z" style="fill:#7bba38"/><path d="M761.73,452.67V555.74c59.57-30.37,73.85-49.8,76.45-103.07Z" style="fill:#81cc3b"/><path d="M687.44,452.67c2.59,53.27,14.72,72.7,74.29,103.07V452.67Z" style="fill:#7bba38"/><path d="M761.73,539.24c-67.83-34.58-77-48.12-77-119.65v9c0,71.53,9.12,94.69,77,129.27,67.83-34.58,77-57.73,77-129.27v-9C838.68,491.12,829.56,504.66,761.73,539.24Z" style="opacity:0.10000000149011612;isolation:isolate"/><path d="M732.88,426a28.79,28.79,0,0,0,10.44,22.19l-5.58,39.66a4.81,4.81,0,0,0,4.76,5.48H781a4.81,4.81,0,0,0,4.76-5.48l-5.58-39.66A28.85,28.85,0,1,0,732.88,426Z"/><path d="M781,426a19.23,19.23,0,0,1-8.63,16,4.82,4.82,0,0,0-2.1,4.68l5.2,37H748l5.2-37a4.82,4.82,0,0,0-2.1-4.68A19.23,19.23,0,1,1,781,426Z" style="fill:#dfdfe3"/><path d="M757.27,483.68l4.78-34A4.82,4.82,0,0,0,760,445a19.23,19.23,0,0,1,10.6-35.27c.59,0,1.15.12,1.73.17A19.22,19.22,0,0,0,751.13,442a4.82,4.82,0,0,1,2.1,4.68l-5.2,37Z" style="opacity:0.10000000149011612;isolation:isolate"/></svg>