<?xml version="1.0" encoding="UTF-8"?>
<svg width="539px" height="475px" viewBox="0 0 539 475" version="1.1" xmlns="http://www.w3.org/2000/svg" xmlns:xlink="http://www.w3.org/1999/xlink">
    <!-- Generator: Sketch 47.1 (45422) - http://www.bohemiancoding.com/sketch -->
    <title>home-icon-02</title>
    <desc>Created with Sketch.</desc>
    <defs></defs>
    <g id="Page-1" stroke="none" stroke-width="1" fill="none" fill-rule="evenodd">
        <g id="home-icon-02" fill-rule="nonzero">
            <g id="start" transform="translate(44.000000, 56.000000)">
                <g id="Group" transform="translate(27.000000, 152.000000)" fill="#727272">
                    <polygon id="Shape" points="27.6669425 3.88128755 27.6669425 205.117648 0.799765487 205.117648 0.799765487 0.655133047"></polygon>
                    <polygon id="Shape" points="398.196704 0.663974249 398.196704 205.117648 371.329527 205.117648 371.329527 3.88128755"></polygon>
                </g>
                <path d="M445,7 L445,149.489608 C384.08193,158.161255 322.771522,163.194584 261.406452,164.598414 C176.434141,166.529562 91.3463341,161.496232 7,149.489608 L7,7 C27.7383291,9.95051165 48.5207411,12.4804034 69.3304844,14.5905572 L69.339301,14.5905572 C194.330009,27.258534 320.465108,24.7286422 445,7 Z" id="Shape" fill="#1A78CA"></path>
                <g id="Group" transform="translate(27.000000, 152.000000)" fill="#434A54">
                    <path d="M0.799765487,0.648375 L27.6669425,3.842125 L27.6669425,34.447875 C18.7079801,33.4635 9.7490177,32.398625 0.799765487,31.254125 C0.799765487,31.254125 0.799765487,0.648375 0.799765487,0.648375 Z" id="Shape"></path>
                    <path d="M398.196704,0.657125 L398.196704,31.254125 C389.246569,32.398625 380.288489,33.4635 371.329527,34.447875 L371.329527,3.84125 L398.196704,0.657125 Z" id="Shape"></path>
                </g>
                <path d="M261,164.598416 C176.163445,166.529553 91.2115784,161.496252 7,149.489694 L7,7 C27.7051966,9.95049518 48.4544056,12.4803729 69.2309023,14.5905148 C69.2309023,14.5905148 124.786003,155.336013 260.884687,164.589598 C260.919897,164.589598 260.96479,164.598416 261,164.598416 Z" id="Shape" fill="#186CB5"></path>
                <path d="M159.990879,128 C163.680084,128 166.671687,124.994138 166.671687,121.287349 L166.671687,70.3518857 C171.471431,70.6167194 176.267661,70.8621319 181.043684,71.0607572 C181.136815,71.0642883 181.230824,71.0660539 181.323954,71.0660539 C184.885764,71.0660539 187.844859,68.2402784 187.99422,64.6305953 C188.146216,60.9273375 185.282008,57.7996517 181.594561,57.6460482 C167.513378,57.0607657 153.258233,56.177104 139.226252,55.0224291 C135.548468,54.7222843 132.324038,57.4694924 132.022681,61.1648051 C131.721325,64.859235 134.458137,68.0999166 138.13592,68.4027098 C143.170248,68.8167331 148.236206,69.1839691 153.309192,69.5273702 L153.309192,121.286466 C153.31007,124.994138 156.301674,128 159.990879,128 Z" id="Shape" fill="#FFFFFF"></path>
                <path d="M348.017848,123 C351.717729,123 354.716395,119.999586 354.716395,116.299515 L354.716395,64.3099586 C359.893586,63.6852027 365.06461,63.0375362 370.199516,62.3414048 C373.865041,61.8444199 376.434697,58.4695046 375.938737,54.8029191 C375.441895,51.1354524 372.065313,48.5624099 368.40155,49.0620384 C354.390453,50.9600978 340.148554,52.5982094 326.068744,53.9287896 C322.386482,54.2768553 319.682926,57.5460291 320.03001,61.229357 C320.357714,64.6994396 323.275334,67.2997987 326.690677,67.2997987 C326.901218,67.2997987 327.115282,67.2901057 327.329347,67.2698386 C331.979745,66.8301303 336.648642,66.3463631 341.319302,65.8414475 L341.319302,116.298634 C341.319302,119.999586 344.317086,123 348.017848,123 Z" id="Shape" fill="#FFFFFF"></path>
                <path d="M304,79.6075145 L304,77.6272052 C304,71.8587077 301.74169,66.5397605 297.641027,62.6486419 C293.498153,58.717055 288.006273,56.7129925 282.140646,57.0332202 C276.585449,57.3279353 270.965176,57.5813023 265.438999,57.787163 C261.844873,57.9200047 259,60.8741933 259,64.4723564 L259,96.0640519 L259,122.310408 C259,126.004463 261.993492,129 265.686991,129 C269.380489,129 272.373981,126.004463 272.373981,122.310408 L272.373981,102.516992 C277.272264,102.5601 281.786246,104.340707 285.17635,107.594009 C288.68957,110.964318 290.625139,115.60498 290.625139,120.660883 C290.625139,124.354939 293.618632,127.350475 297.31213,127.350475 C301.005628,127.350475 303.999121,124.354939 303.999121,120.660883 C303.999121,111.925881 300.601102,103.855966 294.43296,97.9379118 C294.423287,97.9282346 294.411854,97.9194372 294.402181,97.90976 C300.17547,93.8022237 304,87.0457709 304,79.6075145 Z M272.373981,70.8971448 C275.864337,70.7467081 279.369643,70.5777968 282.848567,70.3930501 C284.985519,70.275164 286.983526,70.9754422 288.438061,72.3566442 C289.848625,73.6956183 290.626019,75.5677188 290.626019,77.628085 L290.626019,79.6083943 C290.626019,84.2525758 286.74169,88.381226 282.141525,88.624036 L282.140646,88.624036 C278.907956,88.7955866 275.641848,88.953941 272.373981,89.0964599 L272.373981,70.8971448 Z" id="Shape" fill="#FFFFFF"></path>
                <path d="M235.336069,129 C239.01683,129 242,126.012457 242,122.32826 L242,79.9613069 C242,67.920764 232.146952,58.0693309 220.034617,58.0000164 C214.086681,57.9929972 208.549764,60.2356284 204.386121,64.3813375 C200.26805,68.4822992 198,73.9546351 198,79.7910916 L198,122.158045 C198,125.842242 200.984046,128.829785 204.663931,128.829785 C208.343817,128.829785 211.327863,125.842242 211.327863,122.158045 L211.327863,102.237584 C216.164559,102.303388 221.012648,102.349013 225.854602,102.349013 C226.796702,102.349013 227.730914,102.339362 228.672137,102.33673 L228.672137,122.329137 C228.672137,126.013335 231.655307,129 235.336069,129 Z M211.328739,88.9020001 L211.328739,79.7910916 C211.328739,77.5317898 212.201605,75.4190136 213.786086,73.8405733 C215.416137,72.2173856 217.595674,71.3636767 219.961878,71.3426191 C224.764395,71.3698185 228.672137,75.2356373 228.672137,79.9604295 L228.672137,88.998514 C222.899476,89.0143071 217.104029,88.9818434 211.328739,88.9020001 Z" id="Shape" fill="#FFFFFF"></path>
                <path d="M92.273636,65.8857735 C93.542114,64.7568381 95.3225574,64.2653048 97.286851,64.5057672 C102.688878,65.1652705 108.177992,65.7929479 113.60553,66.3711184 C117.281653,66.7609857 120.572482,64.0867262 120.961295,60.3940379 C121.350107,56.7022337 118.687359,53.3923403 115.013875,53.001589 C109.655831,52.431375 104.234451,51.8125381 98.9001579,51.1609912 C93.0785302,50.4502128 87.576221,52.1086957 83.4022072,55.8252534 C79.2739359,59.5020287 77,64.7144036 77,70.504949 C77,82.0515617 85.9127731,92.1819219 97.28949,93.5690006 L99.0866471,93.7864776 C103.712809,94.3451989 107.621164,98.6920862 107.621164,103.278552 C107.621164,105.228772 106.910394,106.937646 105.619045,108.087799 C104.34089,109.227343 102.587717,109.7286 100.680601,109.497863 C95.3383914,108.854272 89.9231692,108.159407 84.5871169,107.4336 C80.9233091,106.935878 77.5568284,109.51466 77.0615766,113.193203 C76.5654451,116.872631 79.1314301,120.258552 82.7925988,120.756274 C88.1963854,121.490922 93.6793419,122.194628 99.0875267,122.846175 C99.9416822,122.949609 100.7888,123 101.627122,123 C106.439773,123 110.937504,121.318532 114.497511,118.144782 C118.629301,114.460935 121,109.041691 121,103.277668 C121,91.8450978 112.074912,81.8128674 100.680601,80.4372814 L98.9001579,80.2224566 C94.3602031,79.6681555 90.378836,75.1276607 90.378836,70.504949 C90.378836,68.5865546 91.034187,66.9899553 92.273636,65.8857735 Z" id="Shape" fill="#FFFFFF"></path>
                <path d="M449.687902,1.64353364 C448.218014,0.367950174 446.266991,-0.208489969 444.342452,0.0678128862 C320.386265,17.7079406 194.372235,20.2546937 69.8033738,7.6339208 C66.1167344,7.25698367 62.8220653,9.94762618 62.4477514,13.6357838 C62.0734374,17.3239414 64.761612,20.616624 68.450017,20.9909128 C191.537513,33.4616171 316.011912,31.252077 438.575898,14.4293821 L438.575898,143.516664 C297.481606,163.057367 154.52104,163.057367 13.4258649,143.516664 L13.4258649,14.4293821 C23.7592255,15.8470894 34.1755708,17.1703417 44.4886266,18.3770702 C48.1796801,18.813152 51.5061306,16.1719439 51.9351791,12.4899656 C52.3659933,8.80798724 49.7299049,5.47381508 46.0476796,5.04391256 C33.291872,3.55293645 20.375392,1.87922969 7.65842831,0.068695643 C5.72859265,-0.205841699 3.7819835,0.369715687 2.31297777,1.6444164 C0.843972042,2.91823436 0,4.76849246 0,6.71320553 L0,149.352569 C0,152.694686 2.4586424,155.527452 5.76655374,155.997961 C10.6988464,156.699753 15.6337875,157.373296 20.5704943,158.027419 L20.5704943,356.287518 C20.5704943,359.994213 23.5764826,363 27.2834267,363 L54.1528128,363 C57.8597569,363 60.8657452,359.994213 60.8657452,356.287518 L60.8657452,162.84374 C115.766303,168.677879 170.883151,171.596273 225.999999,171.596273 C281.116846,171.596273 336.231929,168.678762 391.130721,162.84374 L391.130721,222.51015 C391.130721,226.216845 394.135826,229.222632 397.843653,229.222632 C401.55148,229.222632 404.556586,226.216845 404.556586,222.51015 L404.556586,161.357177 C409.039525,160.841647 413.520699,160.305814 418.00099,159.75056 L418.00099,349.575036 L404.556586,349.575036 L404.556586,244.885384 C404.556586,241.178689 401.55148,238.172902 397.843653,238.172902 C394.135826,238.172902 391.130721,241.178689 391.130721,244.885384 L391.130721,356.287518 C391.130721,359.994213 394.135826,363 397.843653,363 L424.713922,363 C428.421749,363 431.426854,359.994213 431.426854,356.287518 L431.426854,158.029184 C436.364444,157.375062 441.300268,156.700636 446.233443,155.998844 C449.541355,155.528335 451.999997,152.695568 451.999997,149.353451 L451.999997,6.71320553 C452.001763,4.76849246 451.157791,2.91823436 449.687902,1.64353364 Z M47.4407632,349.575036 L33.9963592,349.575036 L33.9963592,159.749677 C38.4757672,160.304931 42.956941,160.840765 47.4398803,161.356295 L47.4398803,349.575036 L47.4407632,349.575036 Z" id="Shape" fill="#000000"></path>
            </g>
        </g>
    </g>
</svg>