<?xml version="1.0" encoding="UTF-8"?>
<svg width="539px" height="475px" viewBox="0 0 539 475" version="1.1" xmlns="http://www.w3.org/2000/svg" xmlns:xlink="http://www.w3.org/1999/xlink">
    <!-- Generator: Sketch 47.1 (45422) - http://www.bohemiancoding.com/sketch -->
    <title>home-icon-04</title>
    <desc>Created with Sketch.</desc>
    <defs></defs>
    <g id="Page-1" stroke="none" stroke-width="1" fill="none" fill-rule="evenodd">
        <g id="home-icon-04" fill-rule="nonzero">
            <g id="rocket" transform="translate(91.000000, 59.000000)">
                <path d="M358,7.45856641 C358,3.33597266 354.664033,0 350.541446,0 C248.189971,0 180.634362,61.7605938 121.29456,134.300344 C42.6444656,135.21702 16.5377776,165.470117 0.386549948,213.93227 C-0.378394122,216.20473 0.00757400095,218.710031 1.40600923,220.655258 C2.81143663,222.599086 5.06221813,223.75 7.45843689,223.75 L64.0370285,223.75 L71.4955828,231.208566 L46.9355641,255.768625 C44.0219243,258.68227 44.0219243,263.401996 46.9355641,266.314941 L51.7217087,271.101094 C24.6822644,279.233008 0.000581824813,307.926848 0.000581824813,350.541434 C0.000581824813,354.664027 3.33654906,358 7.45913611,358 C50.074352,358 78.767446,333.318277 86.8993468,306.278789 L91.6854914,311.064941 C93.1419617,312.521414 95.0508258,313.25 96.9589907,313.25 C98.8671555,313.25 100.77532,312.521414 102.23249,311.064941 L126.792509,286.504883 L134.214704,293.92709 L134.214704,350.542133 C134.214704,352.938355 135.365616,355.189141 137.31014,356.59457 C138.599497,357.519637 140.128686,358 141.673258,358 C142.46687,358 143.261181,357.876238 144.033117,357.614031 C192.488199,341.464875 222.739849,315.363039 223.663515,236.73659 C296.219229,177.389699 358,109.827688 358,7.45856641 Z" id="Shape" fill="#1A1A1A"></path>
                <path d="M109,150 C98.336517,163.433726 87.8591796,177.077833 77.4609191,190.684322 L63.4104262,209 L18,209 C31.8629478,173.548032 53.2654916,153.15223 109,150 Z" id="Shape" fill="#FF3502"></path>
                <path d="M15,342 C18.0226656,306.586439 41.4343432,284.673511 64.1043353,283 L74,292.895665 C72.32579,315.565657 50.4135615,338.977334 15,342 Z" id="Shape" fill="#EE8700"></path>
                <path d="M34,324 C35.9980772,300.59145 51.4731886,286.106617 66.4584172,285 L73,291.541583 C71.8926826,306.526811 57.4085502,322.001923 34,324 Z" id="Shape" fill="#FFA93D"></path>
                <rect id="Rectangle-path" fill="#F2F2F2" transform="translate(89.500000, 269.500000) rotate(135.000000) translate(-89.500000, -269.500000) " x="76" y="245" width="27" height="49"></rect>
                <rect id="Rectangle-path" fill="#D6D6D6" transform="translate(96.000000, 262.500000) rotate(135.000000) translate(-96.000000, -262.500000) " x="92" y="238" width="8" height="49"></rect>
                <path d="M149,339 L149,293.602905 L167.352769,279.519655 C180.947361,269.127675 194.578876,258.656592 208,248 C204.841351,303.729572 184.445979,325.13516 149,339 Z" id="Shape" fill="#FF3502"></path>
                <path d="M149.259854,309 L167.612623,294.591653 C180.548872,284.706646 193.501145,274.729268 206.291794,264.609836 C207.025375,259.386023 207.660727,253.981668 208,248 C194.578179,258.65266 180.947361,269.119879 167.352769,279.508024 L149,293.586078 L149,308.930722" id="Shape" fill="#000000" opacity="0.1"></path>
                <path d="M157.527296,268.666632 L141.369124,281 L76,215.630704 L88.3333351,199.472489 C155.917354,110.638674 225.751935,18.8388349 342,15 C338.161175,131.247671 246.361578,201.083135 157.527296,268.666632 Z" id="Shape" fill="#F2F2F2"></path>
                <path d="M129,266.411228 L142.559811,280 L158.643899,267.696992 C246.198592,200.944715 336.514953,131.918109 342,18 C315.552173,125.536033 221.021257,197.014869 129,266.411228 Z" id="Shape" fill="#D6D6D6"></path>
                <circle id="Oval" fill="#1A1A1A" cx="246.5" cy="112.5" r="37.5"></circle>
                <circle id="Oval" fill="#1E88E5" cx="246.5" cy="112.5" r="22.5"></circle>
                <path d="M235.657664,122.724428 C235.657664,110.467094 245.432994,100.496462 257.450236,100.496462 C260.115059,100.496462 262.637549,101.056329 265,101.952394 C261.347701,94.8832063 254.156152,90 245.792572,90 C233.775331,90 224,99.9706319 224,112.227966 C224,121.767236 229.952777,129.851964 238.242808,133 C236.647183,129.912397 235.657664,126.451086 235.657664,122.724428 Z" id="Shape" fill="#000000" opacity="0.1"></path>
                <path d="M102.545787,158.326068 C104.713753,155.561161 106.817338,152.749581 109,150 C53.2661914,153.15223 31.8629478,173.548032 18,209 L21.4122026,209 C34.7915917,179.759145 55.8638321,162.372069 102.545787,158.326068 Z" id="Shape" fill="#FFFFFF" opacity="0.2"></path>
            </g>
        </g>
    </g>
</svg>