<?xml version="1.0" encoding="UTF-8"?>
<svg width="539px" height="475px" viewBox="0 0 539 475" version="1.1" xmlns="http://www.w3.org/2000/svg" xmlns:xlink="http://www.w3.org/1999/xlink">
    <!-- Generator: Sketch 47.1 (45422) - http://www.bohemiancoding.com/sketch -->
    <title>home-icon-03</title>
    <desc>Created with Sketch.</desc>
    <defs></defs>
    <g id="Page-1" stroke="none" stroke-width="1" fill="none" fill-rule="evenodd">
        <g id="home-icon-03" fill-rule="nonzero">
            <g id="safebox-(1)" transform="translate(81.000000, 72.000000)">
                <rect id="Rectangle-path" fill="#767676" x="16" y="8" width="353" height="282"></rect>
                <rect id="Rectangle-path" fill="#D6D6D6" x="41" y="39" width="294" height="219"></rect>
                <g id="Group" transform="translate(36.000000, 292.000000)" fill="#727272">
                    <rect id="Rectangle-path" x="239.756224" y="0.366689815" width="65.1189744" height="30.4352546"></rect>
                    <rect id="Rectangle-path" x="0" y="0.366689815" width="71.0388812" height="26.4016667"></rect>
                </g>
                <path d="M196,148.005903 C196,181.685631 168.460999,209 134.505952,209 C100.539001,209 73,181.684893 73,148.005903 C73,114.315107 100.539001,87 134.505952,87 C168.460999,87 196,114.315107 196,148.005903 Z" id="Shape" fill="#B4B4B4"></path>
                <path d="M168,149 C168,165.563678 154.563678,179 138,179 C121.436322,179 108,165.563678 108,149 C108,132.436322 121.436322,119 138,119 C154.563678,119 168,132.436322 168,149 Z" id="Shape" fill="#C8C8C8"></path>
                <path d="M312,125.005892 C312,147.643396 293.643396,166 270.994108,166 C248.356604,166 230,147.643396 230,125.005892 C230,102.356604 248.356604,84 270.994108,84 C293.643396,84 312,102.356604 312,125.005892 Z" id="Shape" fill="#FFCA28"></path>
                <polygon id="Shape" fill="#FFCA28" points="279.904698 118.382508 264.738524 111 253 127.241518 256.427649 197.121387 270.355408 205 283 163.623256"></polygon>
                <path d="M370.121063,0 L7.8789375,0 C3.52972266,0 0,3.53239062 0,7.87307143 L0,291.587357 C0,295.950942 3.52972266,299.484071 7.8789375,299.484071 L31.4463516,299.484071 L31.4463516,331 L110.246063,331 L110.246063,299.484071 L267.753938,299.484071 L267.753938,331 L346.553648,331 L346.553648,299.484071 L370.121063,299.484071 C374.470277,299.484071 378,295.951681 378,291.587357 L378,7.87307143 C378,3.53239062 374.470277,0 370.121063,0 Z M94.5,315.230214 L47.2042266,315.230214 L47.2042266,299.484071 L94.5,299.484071 L94.5,315.230214 Z M330.795773,315.230214 L283.5,315.230214 L283.5,299.484071 L330.795773,299.484071 L330.795773,315.230214 Z M362.253937,283.714286 L15.7460625,283.714286 L15.7460625,15.7697857 L362.253937,15.7697857 L362.253937,283.714286 Z" id="Shape" fill="#1A1A1A"></path>
                <path d="M31.867748,117.9079 L31.867748,181.1158 C27.5410773,181.138759 24.0457771,184.656728 24.0457771,189.0079 L24.0457771,220.6 C24.0457771,224.951172 27.5410773,228.469141 31.867748,228.50395 L31.867748,268 L347,268 L347,31 L31.867748,31 L31.867748,70.5079 C27.5181888,70.5079 24,74.0488281 24,78.4 L24,110.0158 C24,114.366972 27.5181888,117.9079 31.867748,117.9079 Z M47.626871,46.8079 L331.241615,46.8079 L331.241615,252.2158 L47.626871,252.2158 L47.626871,46.8079 Z" id="Shape" fill="#000000"></path>
                <path d="M134,79 C94.79025,79 63,110.802083 63,150 C63,189.220844 94.79025,221 134,221 C173.220844,221 205,189.220844 205,150 C205,110.802083 173.220844,79 134,79 Z M173.047781,189.059615 C162.624094,199.483302 148.756906,205.238 134,205.238 C119.254188,205.238 105.387,199.483302 94.9522188,189.059615 C84.5285313,178.624833 78.7856667,164.757646 78.7856667,150.00074 C78.7856667,135.254927 84.5292708,121.38774 94.9522188,110.964792 C105.38774,100.529271 119.254927,94.7856667 134,94.7856667 C148.756906,94.7856667 162.624094,100.529271 173.047781,110.964052 C183.482563,121.38774 189.226167,135.254927 189.226167,150 C189.226167,164.756906 183.482563,178.624094 173.047781,189.059615 Z" id="Shape" fill="#000000"></path>
                <path d="M164.826997,122.642869 C164.595431,122.769184 164.374998,122.918264 164.154565,123.067345 C163.07615,121.873967 161.927968,120.726121 160.721894,119.670807 C160.872561,119.464445 161.023227,119.234582 161.150885,119.005453 C163.342599,115.264489 162.043751,110.46821 158.251855,108.311317 C154.471093,106.142674 149.623791,107.42785 147.443952,111.179831 C147.304419,111.40896 147.188636,111.638822 147.084728,111.868685 C145.554313,111.363428 143.988273,110.938952 142.388092,110.618025 C142.4111,110.365396 142.422975,110.101752 142.422975,109.849123 C142.422975,105.511836 138.874521,102 134.502227,102 C130.129932,102 126.593353,105.511102 126.593353,109.849123 C126.593353,110.101752 126.605228,110.365396 126.628236,110.618025 C125.028055,110.939687 123.462015,111.364162 121.9316,111.868685 C121.82695,111.639557 121.700034,111.409694 121.572376,111.179831 C119.380662,107.42785 114.544493,106.142674 110.752598,108.311317 C106.971835,110.468945 105.672987,115.265223 107.853568,119.005453 C107.993101,119.234582 108.143768,119.464445 108.294434,119.670807 C107.076486,120.726855 105.928304,121.873967 104.861763,123.067345 C104.64133,122.918264 104.420897,122.769184 104.189331,122.642869 C100.397436,120.474226 95.5612666,121.759402 93.3695526,125.500367 C91.1889717,129.252348 92.4766871,134.03761 96.2685823,136.206253 C96.5001484,136.332568 96.7324568,136.458882 96.9758981,136.561696 C96.4652651,138.076001 96.036274,139.625557 95.711933,141.220644 C95.4425147,141.186128 95.1871982,141.174378 94.9207488,141.174378 C90.5484539,141.174378 87,144.685479 87,149 C87,153.337287 90.5484539,156.849123 94.9207488,156.849123 C95.1871982,156.849123 95.4425147,156.826357 95.7089642,156.803591 C96.0340474,158.386928 96.4630385,159.936483 96.9729293,161.450788 C96.729488,161.554337 96.4971796,161.668901 96.2656135,161.806231 C92.4737183,163.963859 91.1860029,168.760137 93.3665839,172.500367 C95.5582978,176.252348 100.394467,177.537524 104.186362,175.368881 C104.417928,175.242566 104.638362,175.093486 104.858795,174.944405 C105.926077,176.149534 107.073517,177.273879 108.291465,178.352693 C108.140799,178.559056 107.990133,178.777168 107.850599,179.018047 C105.670018,182.759012 106.968867,187.55529 110.749629,189.712183 C114.541524,191.86981 119.377693,190.584634 121.569407,186.843669 C121.697066,186.614541 121.824724,186.384678 121.928632,186.143799 C123.459046,186.649057 125.025086,187.073532 126.625268,187.394459 C126.602259,187.647088 126.590384,187.910733 126.590384,188.174378 C126.590384,192.500648 130.127705,196 134.499258,196 C138.87081,196 142.421491,192.501383 142.421491,188.175112 C142.421491,187.911467 142.409616,187.647088 142.386608,187.395194 C143.986789,187.073532 145.552829,186.649057 147.083243,186.144534 C147.187894,186.385412 147.303677,186.615275 147.442468,186.844404 C149.623049,190.585369 154.470351,191.870545 158.250371,189.712917 C162.042266,187.55529 163.341115,182.759012 161.149401,179.018782 C161.021743,178.777903 160.871076,178.55979 160.72041,178.353427 C161.926483,177.274614 163.074665,176.150268 164.153081,174.94514 C164.373514,175.09422 164.593947,175.243301 164.825513,175.369615 C168.617408,177.538258 173.453577,176.253082 175.645291,172.501102 C177.825872,168.760137 176.527024,163.963859 172.746262,161.806966 C172.514696,161.668901 172.270512,161.554337 172.038946,161.451523 C172.549579,159.937218 172.97857,158.387662 173.302911,156.804325 C173.558227,156.827091 173.824677,156.849857 174.091126,156.849857 C178.463421,156.849857 182,153.338755 182,149.000734 C182,144.686214 178.462679,141.175112 174.091126,141.175112 C173.824677,141.175112 173.557485,141.186862 173.302911,141.220644 C172.977828,139.625557 172.548837,138.076736 172.038946,136.561696 C172.270512,136.458148 172.514696,136.332568 172.746262,136.206253 C176.527024,134.03761 177.825872,129.252348 175.645291,125.500367 C173.45432,121.758668 168.618892,120.473492 164.826997,122.642869 Z M110.750371,149 C110.750371,136.056438 121.407608,125.499633 134.500742,125.499633 C147.605009,125.499633 158.251113,136.056438 158.251113,149 C158.251113,161.966328 147.605009,172.500367 134.500742,172.500367 C121.40835,172.500367 110.750371,161.966328 110.750371,149 Z" id="Shape" fill="#000000"></path>
                <path d="M267.5,79 C241.268125,79 220,100.189153 220,126.323625 C220,144.636388 230.436641,160.510507 245.698242,168.378799 C248.307773,193.47363 254.187383,220 267.5,220 C280.801484,220 286.692227,193.47289 289.289883,168.378799 C304.550742,160.510507 315,144.64748 315,126.323625 C315,100.189153 293.731875,79 267.5,79 Z M273.355859,168.471228 C271.685938,183.699083 269.389609,192.860641 267.499258,198.245182 C265.597773,192.86138 263.301445,183.699083 261.631523,168.471228 C259.695156,150.805467 259.485859,133.117522 259.485859,126.323625 C259.485859,121.93288 263.081016,118.351812 267.499258,118.351812 C271.9175,118.351812 275.500781,121.933619 275.500781,126.323625 C275.501523,133.117522 275.292969,150.817297 273.355859,168.471228 Z M290.821016,147.651791 C291.296758,137.715308 291.342773,129.743496 291.342773,126.323625 C291.342773,113.210544 280.661953,102.569383 267.5,102.569383 C254.326172,102.569383 243.657227,113.210544 243.657227,126.323625 C243.657227,129.743496 243.692109,137.715308 244.167852,147.651791 C238.995547,142.025455 235.829375,134.53871 235.829375,126.323625 C235.829375,108.93589 250.035586,94.7824288 267.5,94.7824288 C284.953281,94.7824288 299.15875,108.93589 299.15875,126.323625 C299.15875,134.53871 295.992578,142.025455 290.821016,147.651791 Z" id="Shape" fill="#000000"></path>
            </g>
        </g>
    </g>
</svg>