<?xml version="1.0" encoding="UTF-8"?>
<svg width="539px" height="475px" viewBox="0 0 539 475" version="1.1" xmlns="http://www.w3.org/2000/svg" xmlns:xlink="http://www.w3.org/1999/xlink">
    <!-- Generator: Sketch 47.1 (45422) - http://www.bohemiancoding.com/sketch -->
    <title>home-icon-01</title>
    <desc>Created with Sketch.</desc>
    <defs></defs>
    <g id="Page-1" stroke="none" stroke-width="1" fill="none" fill-rule="evenodd">
        <g id="home-icon-01" fill-rule="nonzero">
            <g id="help" transform="translate(116.000000, 16.000000)">
                <path d="M282.510774,33 L25.4892259,33 C15.8299784,33 8,40.7817092 8,50.3814107 L8,170.618589 C8,180.218291 15.8299784,188 25.4892259,188 L282.510774,188 C292.170022,188 300,180.218291 300,170.618589 L300,50.380613 C300.000803,40.7809115 292.170022,33 282.510774,33 Z" id="Shape" fill="#CD2A01"></path>
                <path d="M282.510774,26 C296.026739,26 307.001127,36.9056973 307,50.380613 L307,170.618589 C307,184.094007 296.026358,195 282.510774,195 L25.4892259,195 C11.9736418,195 1,184.094007 1,170.618589 L1,50.3814107 C1,36.905993 11.9736418,26 25.4892259,26 L282.510774,26 Z M282.510774,40 L25.4892259,40 C19.6863149,40 15,44.6574254 15,50.3814107 L15,170.618589 C15,176.342575 19.6863149,181 25.4892259,181 L282.510774,181 C288.313685,181 293,176.342575 293,170.618589 L293,50.3800277 C293.000479,44.6569808 288.314165,40 282.510774,40 Z" id="Shape" fill="#1A1A1A"></path>
                <path d="M282.510774,8 L25.4892259,8 C15.8299784,8 8,15.7817092 8,25.3814107 L8,145.618589 C8,155.218291 15.8299784,163 25.4892259,163 L282.510774,163 C292.170022,163 300,155.218291 300,145.618589 L300,25.3814107 C300.000803,15.7817092 292.170022,8 282.510774,8 Z" id="Shape" fill="#FF3502"></path>
                <path d="M282.510774,0.5 C296.30214,0.5 307.50115,11.6296185 307.5,25.3814107 L307.5,145.618589 C307.5,159.370844 296.301811,170.5 282.510774,170.5 L25.4892259,170.5 C11.6981892,170.5 0.5,159.370844 0.5,145.618589 L0.5,25.3814107 C0.5,11.6291561 11.6981892,0.5 25.4892259,0.5 L282.510774,0.5 Z M282.510774,15.5 L25.4892259,15.5 C19.9617675,15.5 15.5,19.9342622 15.5,25.3814107 L15.5,145.618589 C15.5,151.065738 19.9617675,155.5 25.4892259,155.5 L282.510774,155.5 C288.038232,155.5 292.5,151.065738 292.5,145.618589 L292.5,25.3807836 C292.500455,19.9343508 288.038457,15.5 282.510774,15.5 Z" id="Shape" fill="#1A1A1A"></path>
                <g id="Group" transform="translate(42.000000, 40.000000)" fill="#FFFFFF">
                    <path d="M38.2305744,43.001376 L14.0015684,43.001376 L14.0015684,73.625172 C14.0015684,76.506922 10.4477549,78 7.00078421,78 C3.44697069,78 0,76.5061919 0,73.625172 L0,4.26750161 C0,1.27988543 3.44623384,0 7.00078421,0 C10.447018,0 14.0015684,1.27988543 14.0015684,4.26750161 L14.0015684,32.1176041 L38.2305744,32.1176041 L38.2305744,4.26750161 C38.2305744,1.27988543 41.6768083,0 45.2313587,0 C48.6775925,0 52.2321429,1.27988543 52.2321429,4.26750161 L52.2321429,73.625172 C52.2321429,76.506922 48.6783293,78 45.2313587,78 C41.6775451,78 38.2305744,76.5061919 38.2305744,73.625172 L38.2305744,43.001376 Z" id="Shape"></path>
                    <path d="M79.1258381,33.5048159 L95.5367841,33.5048159 C98.3455721,33.5048159 99.9634694,36.1726433 99.9634694,39.0529331 C99.9634694,41.5068378 98.560553,44.3885878 95.5367841,44.3885878 L79.1258381,44.3885878 L79.1258381,65.8356126 L109.680458,65.8356126 C112.487768,65.8356126 114.107143,68.7173626 114.107143,72.0247676 C114.107143,74.9065176 112.704226,78 109.680458,78 L71.2446833,78 C68.1137934,78 65.0892857,76.5061919 65.0892857,73.625172 L65.0892857,4.37409789 C65.0892857,1.49307798 68.1130546,0 71.2446833,0 L109.680458,0 C112.704226,0 114.107143,3.09421246 114.107143,5.97523237 C114.107143,9.2833675 112.487029,12.1643874 109.680458,12.1643874 L79.1258381,12.1643874 L79.1258381,33.5048159 L79.1258381,33.5048159 Z" id="Shape"></path>
                    <path d="M128.243562,78 C125.140491,78 122.142857,76.5061779 122.142857,73.625131 L122.142857,4.26754156 C122.142857,1.27989741 125.567365,0 129.099506,0 C132.524013,0 136.056154,1.27989741 136.056154,4.26754156 L136.056154,65.8354987 L162.166468,65.8354987 C164.948835,65.8354987 166.339286,68.8231429 166.339286,71.9173843 C166.339286,74.9050285 164.948835,77.9992699 162.166468,77.9992699 L128.243562,77.9992699 L128.243562,78 Z" id="Shape"></path>
                    <path d="M173.572904,4.26746167 C173.572904,2.02750061 175.622257,0 178.856368,0 L200.525801,0 C214.219136,0 225,6.50815284 225,24.0080312 L225,24.6483329 C225,42.1474811 213.89602,48.8702847 199.663421,48.8702847 L187.589355,48.8702847 L187.589355,73.6252129 C187.589355,76.506936 184.031389,78 180.580392,78 C177.022426,78 173.571429,76.5062059 173.571429,73.6252129 L173.571429,4.26746167 L173.572904,4.26746167 Z M187.589355,12.1628133 L187.589355,37.9851545 L199.663421,37.9851545 C206.672384,37.9851545 210.984287,34.0374787 210.984287,25.7142857 L210.984287,24.4336822 C210.984287,16.1112193 206.672384,12.1628133 199.663421,12.1628133 C199.664158,12.1628133 187.589355,12.1628133 187.589355,12.1628133 Z" id="Shape"></path>
                </g>
                <path d="M76.4847065,235.449434 C83.9924391,227.940331 94.1805393,223.630164 105.01173,223.630164 C111.423384,223.630164 117.48637,225.127696 122.870006,227.791944 C130.674499,219.998053 140.857307,215.693412 151.680608,215.693412 C153.835639,215.693412 155.951159,215.862393 158.014647,216.187829 L158.014647,155.337924 C158.014647,144.50968 162.322163,134.319142 169.822464,126.818897 C171.662017,124.979007 173.671701,123.32049 175.825872,121.869907 C182.725417,117.220388 190.921099,114.788345 199.395324,115.014016 C221.362932,115.576789 238.683526,133.919913 238.683526,155.865973 L238.683526,263.282686 C261.666115,255.153244 289,271.635902 289,299.152994 L289,376.393096 C289,381.497596 288.627239,386.538137 287.880903,391.491119 L286.795664,398.6932 L280.83289,402.87567 C243.807626,428.846306 199.703379,443 153.504006,443 C107.55725,443 63.6752426,429.000217 26.7652811,403.292569 L20.7002211,399.068278 L19.6528571,391.751679 C18.5542434,384.077065 18,376.349152 18,368.607787 L18,283.523882 C18,272.693467 22.3088556,262.504383 29.815828,254.99604 C31.6600452,253.151486 33.6761811,251.488254 35.8131506,250.053766 C42.4143157,245.606633 50.2199639,243.184783 58.3348398,243.184783 C62.2201751,243.184783 65.9770799,243.734055 69.5321769,244.759193 C71.3761829,241.35951 73.7123166,238.22233 76.4847065,235.449434 Z" id="Shape" fill="#1A1A1A"></path>
                <path d="M272,299.152994 L272,376.393096 C272,380.654343 271.689958,384.848281 271.070676,388.958084 C237.785663,412.305196 197.251923,426 153.504006,426 C109.998834,426 69.666181,412.455838 36.4813101,389.342702 C35.5023155,382.503714 35,375.580591 35,368.607787 L35,283.523882 C35,277.078326 37.6109192,271.243351 41.8377402,267.015758 C42.9008546,265.95245 44.0641116,264.990104 45.3114884,264.152758 C49.0271813,261.649536 53.5135721,260.184783 58.3348398,260.184783 C71.2235995,260.184783 81.6688785,270.631969 81.6688785,283.523081 L81.6688785,263.968462 C81.6688785,257.522906 84.2797977,251.696745 88.5066187,247.469153 C92.7334397,243.24156 98.5665488,240.630164 105.01173,240.630164 C117.892478,240.630164 128.345768,251.085363 128.345768,263.968462 L128.345768,256.032511 C128.345768,249.586955 130.956688,243.75198 135.175497,239.524388 C139.402318,235.305609 145.235427,232.693412 151.680608,232.693412 C164.569368,232.693412 175.014647,243.140598 175.014647,256.03171 L175.014647,155.337924 C175.014647,148.892368 177.625566,143.057393 181.844376,138.838615 C182.90749,137.775306 184.070747,136.81296 185.326135,135.967602 C189.201255,133.356206 193.904755,131.873824 198.959956,132.008441 C211.69009,132.334565 221.683526,143.125503 221.683526,155.865973 L221.683526,320.056179 C221.683526,307.508018 226.27807,296.039191 233.869684,287.225029 C234.690053,286.270695 235.535257,285.358029 236.42212,284.471004 L236.698514,284.19456 C249.79557,271.293832 272,280.761844 272,299.152994 Z" id="Shape" fill="#FECD9C"></path>
                <g id="Group" transform="translate(35.000000, 136.000000)">
                    <path d="M149.772866,0.0320987654 L149.772866,168.748827 C149.772866,171.600802 147.458992,173.912716 144.604598,173.912716 L144.604598,173.912716 C141.750205,173.912716 139.436331,171.600802 139.436331,168.748827 L139.436331,19.4317901 C139.436331,12.9767284 142.053795,7.13314815 146.283181,2.90814815 C147.348157,1.8432716 148.514331,0.879506173 149.772866,0.0320987654 Z" id="Shape" fill="#EAB689"></path>
                    <path d="M103.986992,100.87679 L103.986992,178.238827 C103.986992,181.090802 101.673118,183.402716 98.8187244,183.402716 L98.8187244,183.402716 C95.9643307,183.402716 93.6504567,181.090802 93.6504567,178.238827 L93.6504567,120.275679 C93.6504567,113.820617 96.2679213,107.977037 100.497307,103.752037 C101.562283,102.68716 102.728457,101.723395 103.986992,100.87679 Z" id="Shape" fill="#EAB689"></path>
                    <path d="M56.389937,109.626914 L56.389937,184.909753 C56.389937,187.761728 54.076063,190.073642 51.2216693,190.073642 L51.2216693,190.073642 C48.3672756,190.073642 46.0534016,187.761728 46.0534016,184.909753 L46.0534016,129.025802 C46.0534016,122.570741 48.6708661,116.72716 52.900252,112.50216 C53.9652283,111.437284 55.1314016,110.473519 56.389937,109.626914 Z" id="Shape" fill="#EAB689"></path>
                    <path d="M10.4056063,128.408704 L10.4056063,259.609198 C7.40182677,257.739444 4.44864567,255.795062 1.55329134,253.782469 C0.57184252,246.933395 0.0682677165,240.000062 0.0682677165,233.016975 L0.0682677165,147.807593 C0.0682677165,141.352531 2.68573228,135.508951 6.92314961,131.275123 C7.98973228,130.211049 9.15590551,129.247284 10.4056063,128.408704 Z" id="Shape" fill="#EAB689"></path>
                    <path d="M203.73291,146.467773 L202.336535,231.766648 C202.336535,235.493258 200.022538,238.512867 197.168268,238.512867 C194.313318,238.512867 192,235.492371 192,231.766648 L192,176.588696 C192,157.470215 197.168268,151.859131 203.73291,146.467773 Z" id="Shape" fill="#EAB689"></path>
                    <path d="M196.588977,118 L196.588977,222.177294 C196.588977,226.419105 194.274979,229.856173 191.420709,229.856173 C188.565759,229.856173 186.252441,226.418095 186.252441,222.177294 L186.252441,159.371032 L186.916016,118.974121 L196.588977,118 Z" id="Shape" fill="#1A1A1A"></path>
                    <path d="M94.6833071,102.716049 L94.6833071,177.856783 C94.6833071,181.227956 92.3693095,183.959561 89.5150394,183.959561 C86.6600896,183.959561 84.3467717,181.227153 84.3467717,177.856783 L84.3467717,116.118224 C84.3467717,90.2673143 88.24353,111.544012 94.6833071,102.716049 Z" id="Shape-Copy-2" fill="#1A1A1A"></path>
                    <path d="M46.0534016,128.776705 L46.0534016,183.474067 C46.0534016,186.84524 43.739404,189.576845 40.8851339,189.576845 C38.0301841,189.576845 35.7168661,186.844437 35.7168661,183.474067 L35.7168661,133.558882 C35.7168661,107.707972 39.6136245,137.604668 46.0534016,128.776705 Z" id="Shape-Copy-3" fill="#1A1A1A"></path>
                    <path d="M139.462835,84.2592593 L139.462835,167.054012 C139.462835,170.425185 136.605848,173.15679 133.081811,173.15679 C129.556935,173.15679 126.700787,170.424383 126.700787,167.054012 L126.700787,97.1755642 C126.699948,84.6088976 131.511937,93.0872222 139.462835,84.2592593 Z" id="Shape-Copy" fill="#1A1A1A"></path>
                </g>
            </g>
        </g>
    </g>
</svg>